# xmcd
#
# Track frame offsets: 
#        182
#        15525
#        29780
#        43242
#        60545
#        79695
#        91697
#        108807
#        123810
#        135352
#
# Disc length: 2012 seconds
#
# Revision: 3
# Processed by: cddbd v1.4PL0 Copyright (c) Steve Scherf et al.
# Submitted via: ExactAudioCopy v0.90b4
#
DISCID=7207da0a
DTITLE=Dwight Yoakam - Come On Christmas
DYEAR=1997
DGENRE=Country
TTITLE0=Come On Christmas
TTITLE1=Run Run Rudolph
TTITLE2=Silver Bells
TTITLE3=I'll Be Home For Christmas
TTITLE4=Silent Night
TTITLE5=Santa Claus Is Back In Town
TTITLE6=The Christmas Song (Chestnuts Roasting On An Open Fire)
TTITLE7=Away In A Manger
TTITLE8=Here Comes Santa Claus
TTITLE9=Santa Can't Stay
EXTD=
EXTT0=
EXTT1=
EXTT2=
EXTT3=
EXTT4=
EXTT5=
EXTT6=
EXTT7=
EXTT8=
EXTT9=
PLAYORDER=
